/* XPM */
static char *_c48a56e47ce4190a668a0dec2f5dc66[] = {
/* columns rows colors chars-per-pixel */
"64 64 254 2 ",
"   c #7C5936",
".  c #69683D",
"X  c #7A613B",
"o  c #7C3578",
"O  c #4E7E48",
"+  c #5B7747",
"@  c #6B6A42",
"#  c #776942",
"$  c #69774A",
"%  c #B6342E",
"&  c #DF1B1E",
"*  c #FF160D",
"=  c #F90C19",
"-  c #E8151C",
";  c #E51B1C",
":  c #EC1B1D",
">  c #FE1712",
",  c #FA1816",
"<  c #F6141A",
"1  c #F5191B",
"2  c #F91919",
"3  c #CF261F",
"4  c #D6221E",
"5  c #DB1E27",
"6  c #DF1F31",
"7  c #E21C23",
"8  c #EC1B23",
"9  c #E91B27",
"0  c #EC1D2C",
"q  c #FC1523",
"w  c #F31A23",
"e  c #F81B28",
"r  c #E51F37",
"t  c #EB1D32",
"y  c #CB2B23",
"u  c #C82824",
"i  c #D52327",
"p  c #C7332B",
"a  c #C52337",
"s  c #CA39300",
"d  c #C1243B",
"f  c #D92030",
"g  c #F8212C",
"h  c #F92936",
"j  c #974D34",
"k  c #A44A33",
"l  c #B44736",
"z  c #962E5B",
"x  c #B42849",
"c  c #BB2852",
"v  c #8D3166",
"b  c #883374",
"n  c #9A3175",
"m  c #B22E76",
"M  c #C52549",
"N  c #D6244F",
"B  c #DB2349",
"V  c #C92757",
"C  c #D32554",
"Z  c #E62C43",
"A  c #F73B48",
"S  c #C52966",
"D  c #8B6344",
"F  c #F4434E",
"G  c #EE4B55",
"H  c #E85963",
"J  c #F15762",
"K  c #DD6C72",
"L  c #D2767D",
"P  c #E96168",
"I  c #EB6971",
"U  c #E8767B",
"Y  c #4BBC3E",
"T  c #39C83C",
"R  c #78D31E",
"E  c #57CE2F",
"W  c #4CCE34",
"Q  c #48C83A",
"!  c #51D033",
"~  c #6FCD2D",
"^  c #77CC2C",
"/  c #66D425",
"(  c #72D723",
")  c #3A8F4E",
"_  c #2D9A5A",
"`  c #339757",
"'  c #1AAA58",
"]  c #0BB55B",
"[  c #13B756",
"{  c #18B657",
"}  c #2DAF4A",
"|  c #36AC48",
" . c #26BB4B",
".. c #25A555",
"X. c #1CA960",
"o. c #458449",
"O. c #518743",
"+. c #49944C",
"@. c #578652",
"#. c #1FC14F",
"$. c #28C24B",
"%. c #35C544",
"&. c #98D90F",
"*. c #89D81B",
"=. c #94D818",
"-. c #A8DB0C",
";. c #B6DD0C",
":. c #A1DA14",
">. c #9AE210",
",. c #B6E511",
"<. c #C5DF08",
"1. c #C6E203",
"2. c #D6E606",
"3. c #D5E911",
"4. c #E9EA05",
"5. c #F5EC05",
"6. c #FDEE03",
"7. c #EAF006",
"8. c #FFF102",
"9. c #FCF20E",
"0. c #E6EE14",
"q. c #FCED16",
"w. c #FFF217",
"e. c #FDED28",
"r. c #FEF425",
"t. c #FFF32B",
"y. c #FDEB35",
"u. c #FFF635",
"i. c #FDED49",
"p. c #FFF547",
"a. c #FDEA5B",
"s. c #FFF357",
"d. c #FFF95D",
"f. c #FDEE68",
"g. c #FFF568",
"h. c #FFF878",
"j. c #5B3D98",
"k. c #763888",
"l. c #703A92",
"z. c #573FA2",
"x. c #663DA2",
"c. c #7C3CAB",
"v. c #6D3FB7",
"b. c #733EB4",
"n. c #3D46BB",
"m. c #4B42AB",
"M. c #4345B9",
"N. c #5742B2",
"B. c #6441BA",
"V. c #2C3BC6",
"C. c #323AC7",
"Z. c #333DC9",
"A. c #2E43C8",
"S. c #3845C7",
"D. c #3748C7",
"F. c #3D46CB",
"G. c #3649CC",
"H. c #3F48CC",
"J. c #2C4AD9",
"K. c #354AD4",
"L. c #3B49D3",
"P. c #324BD9",
"I. c #3D4ADC",
"U. c #4747C7",
"Y. c #4147CA",
"T. c #414ACC",
"R. c #5644C8",
"E. c #4B54CE",
"W. c #4F58CF",
"Q. c #5259CF",
"!. c #4449D3",
"~. c #4149D9",
"^. c #6142C1",
"/. c #5A62D1",
"(. c #646AD3",
"). c #686ED5",
"_. c #6D74D4",
"`. c #747AD5",
"'. c #883687",
"]. c #993388",
"[. c #8D3799",
"{. c #953695",
"}. c #A83184",
"|. c #813AA7",
" X c #7D83D5",
".X c #B8B2B3",
"XX c #D68B90",
"oX c #DC989A",
"OX c #E4898F",
"+X c #E29EA1",
"@X c #C3A3A6",
"#X c #DDA7AA",
"$X c #C7B7B8",
"%X c #D8B9B9",
"&X c #E0A6A9",
"*X c #F8EF8A",
"=X c #FCF68A",
"-X c #FCF796",
";X c #FEF9A8",
":X c #EFEDBB",
">X c #F3EEB3",
",X c #FDF8B7",
"<X c #8388D9",
"1X c #8D91D7",
"2X c #9598D9",
"3X c #9DA1DF",
"4X c #A6A8DA",
"5X c #B8B8DC",
"6X c #999EE1",
"7X c #A7ABE2",
"8X c #ADB1E4",
"9X c #B6B7E4",
"0X c #CAC9C9",
"qX c #D8C8C9",
"wX c #CDCBDD",
"eX c #D3CFD6",
"rX c #C8D7D6",
"tX c #D7D6D7",
"yX c #E0DCDC",
"uX c #CDE1DE",
"iX c #DBE1DE",
"pX c #F1EEC6",
"aX c #FBF9C9",
"sX c #E5E4DE",
"dX c #E9E5DD",
"fX c #E5E8DE",
"gX c #F8F8DA",
"hX c #C6C5E5",
"jX c #DDDBE4",
"kX c #D9D8E9",
"lX c #E1DEE3",
"zX c #CEE1E1",
"xX c #D6E5E2",
"cX c #DAE4E2",
"vX c #DBEAE5",
"bX c #DAE7E8",
"nX c #DCECEC",
"mX c #DEF0EF",
"MX c #DEEFF0",
"NX c #E6E7E6",
"BX c #EBEBE2",
"VX c #EDEEEC",
"CX c #ECF2EB",
"ZX c #E8F5EC",
"AX c #F4F3EC",
"SX c #F8F6E8",
"DX c #FBFAEE",
"FX c #E3F3F2",
"GX c #EAF8F3",
"HX c #F3FBF3",
"JX c #FBFCF4",
"KX c #F4F6F8",
"LX c #F6F9FE",
"PX c #FEFFFE",
/* pixels */
"PXPXPXPXPXPXPXPXPXPXPXPXPXPXPXPXPXPXPXPXJXPXPXLXLXgX>X*Xa.a.t.r.e.t.i.a.h.;XaXPXJXPXPXPXJXPXPXPXPXPXPXPXPXPXPXPXPXPXPXPXPXPXPXPX",
"PXPXPXPXPXPXPXPXPXPXPXPXPXPXPXPXPXPXPXPXPXKX>Xf.y.q.<.;.*.*.E W ! W / *.=.,.3.r.s.-XSXPXPXPXPXPXPXPXPXPXPXPXPXPXPXPXPXPXPXPXPXPX",
"PXPXPXPXPXPXPXPXPXPXPXPXPXPXPXPXPXPXKXgXf.w.2.&.E %.{ ..) o.@ j   D . O O ..} T / >.7.p.;XJXLXPXPXPXPXPXPXPXPXPXPXPXPXPXPXPXPXPX",
"PXPXPXPXPXPXPXPXPXPXPXPXPXPXPXPXLXpXi.6.-.E  ._ + j 3 8 0 g A F A F A w 8 ; 3 j . `  ./ 1.r.-XJXPXPXPXPXPXPXPXPXPXPXPXPXPXPXPXPX",
"PXPXPXPXPXPXPXPXPXPXPXPXPXPXPXgXi.5.-.%.' + % - g G OX&XqXqXcXnXnXvXcXtXqX#XOXJ h 1 p . ..W -.r.;XJXPXPXPXPXPXPXPXPXPXPXPXPXPXPX",
"PXPXPXPXPXPXPXPXPXPXPXPXPXKX*X6.;.%.' @ 4 q J &XtXFXGXHXHXAXlXjXlXjXlXVXCXZXZXmXuX#XI h ;   ..W 2.p.gXJXPXPXPXPXPXPXPXPXPXPXPXPX",
"PXPXPXPXPXPXPXPXPXPXPXPXBXi.4.E ] $ 7 e U qXMXGXDXlXhX6X<X).Q.E.E.E.W.(.`.2X5XkXBXCXvXrXOXh ; X { R 5.;XPXPXJXPXPXPXPXPXPXPXPXPX",
"PXPXPXPXPXPXPXPXPXPXPX:Xq.<.#._ p q U tXGXJXVX9X<XW.Z.C.C.Z.F.F.F.F.F.Z.S.C.A.T.`.4XjXSXmXrXOXg 3 o.T 2.g.PXPXPXPXPXPXPXPXPXPXPX",
"PXPXPXPXPXPXPXPXJXPX>X6.:.] $ - A qXMXDXlX3X/.C.C.F.H.T.T.T.T.H.F.T.F.T.T.T.T.F.Z.C.E.1XhXCXvX0XP = D [ -.d.JXPXPXPXPXPXPXPXPXPX",
"PXPXPXPXPXPXPXPXLX-X6.^ ] j = U cXGXAX8XW.C.F.T.T.H.H.H.H.H.F.F.F.F.H.F.H.T.H.H.T.T.G.Z.F.2XlXBXuXoX> k ' -.u.DXPXPXPXPXPXPXPXPX",
"PXPXPXPXPXPXPXPX:X8.^ ] l q #XMXDXkX_.Z.F.T.T.F.H.H.H.T.H.H.H.T.H.H.H.H.H.H.H.H.T.F.!.T.F.C.Q.5XBXxX%Xh y { &.p.PXPXPXPXPXPXPXPX",
"PXPXPXPXPXPXPX:X6.^ ] l q %XFXAX9XT.Z.T.F.F.F.T.H.H.H.H.F.T.H.H.T.H.F.T.H.F.T.H.H.F.F.F.H.T.F.F.2XdXxXrXh y ' -.d.PXJXPXPXPXPXPX",
"PXPXPXPXPXPXAXw.=.] l q %XFXDX8XZ.F.T.F.F.T.H.F.H.H.H.H.H.H.H.F.H.H.H.H.H.H.F.H.H.H.!.F.H.F.T.H.V.<XdXjX0XA y [ 1.=XPXPXPXPXPXPX",
"PXPXPXPXPXLXi.1.] D q %XFXDX2XZ.H.H.F.H.H.H.H.T.H.H.H.H.H.H.H.T.H.H.H.H.H.H.T.F.H.H.H.H.H.H.F.T.T.Z.(.lXcX0Xh k $.7.,XPXPXPXPXPX",
"PXPXPXPXLX*X4. .@.= OXMXDX8XC.!.!.F.H.H.H.H.H.H.H.H.H.!.H.H.H.H.H.H.H.H.H.H.T.T.H.H.H.H.H.H.H.F.H.T.V. XdXiX%X= . W r.DXPXPXPXPX",
"PXPXPXPXgX9.~ _ 9 P MXDX8XZ.Y.F.F.H.H.H.H.T.H.H.H.H.F.F.F.F.!.H.H.H.!.F.H.H.F.F.H.H.T.F.H.H.H.H.H.H.T.C.<XdXuXXX< ) &.g.PXPXPXPX",
"PXPXPXLXi.<.] k h iXAXkXY.F.T.F.H.H.H.H.H.H.H.T.T.F.F.T.F.H.H.H.H.F.H.H.F.T.H.F.H.H.H.H.H.H.T.H.H.H.H.T.Z.4XdXuXG %  .4.aXPXPXPX",
"PXPXPX,X6.%.@.< +XFXAX/.Z.T.F.H.H.H.H.H.H.H.H.F.H.H.T.F.H.H.H.H.H.!.H.H.H.H.H.T.T.H.H.H.H.H.H.H.H.H.F.T.F.T.wXcX$Xq @ / p.PXPXPX",
"PXJXLXs.:.] p F MXDX7XC.T.F.T.H.H.F.H.H.H.H.H.H.H.H.H.H.T.H.H.H.H.H.H.H.H.H.H.H.F.H.F.F.H.H.F.H.H.H.H.F.T.Z._.dXuXK - | 3.aXPXJX",
"PXPXaX6.Q @.w #XGXkX!.F.H.H.H.H.H.!.H.H.H.F.T.H.H.H.H.T.F.H.T.H.H.H.T.F.F.T.F.T.H.H.!.H.H.H.T.H.H.H.H.H.F.Y.F.4XdX0Xw . ( d.PXPX",
"PXPXf.1.{ % G nXKX6XC.!.F.T.H.H.H.H.T.F.T.T.F.T.H.H.H.H.H.H.F.F.H.H.H.H.H.H.H.F.T.T.F.Y.H.H.H.H.T.F.T.F.F.T.Z.(.sXuXK u %.0.SXPX",
"PXKXq.( ` q &XGXNXE.F.F.H.F.H.F.F.H.H.T.F.F.H.H.H.H.Y.F.F.Y.F.!.H.H.H.H.H.F.F.T.F.F.H.H.H.H.H.H.H.H.F.Y.F.T.F.F.5XsX$X< O >.-XPX",
"PX;X5.$.D g tXJX7XC.U.Y.Y.Y.T.T.Y.Y.H.F.H.H.H.F.H.F.Y.Y.Y.Y.Y.Y.F.H.T.F.H.Y.Y.Y.F.Y.F.H.F.T.H.F.H.H.Y.Y.Y.Y.T.Z._.dXrXF j E u.PX",
"LXg.<.] p I FXAX(.G.K.K.K.G.K.P.P.G.Y.H.H.F.H.T.H.Y.K.K.L.P.G.Y.H.H.H.F.Y.K.K.K.L.P.H.F.H.F.T.H.F.H.K.K.K.K.K.Y.E.wXuXXX; | 0.gX",
"LXt.*.` w +XGXkXL.b M M c c c c ].B.G.F.F.H.H.H.Y.G.b M c V B.G.T.F.T.Y.G.k.M M M m U.G.F.T.F.Y.H.G.b M c M {.L.Z.4XfX$Xw o.,.;X",
"gX9.Q $ q qXJX8XV.s , w > > * > , e {.G.Y.T.H.F.L.m.: 2 1 * m K.Y.H.F.Y.G.a , 1 1 > }.K.Y.H.T.Y.K.k.> 1 1 > B !.C. XdXrXZ   ( d.",
",X5.#.D A bXJX<XV.d w 8 m n n a 8 8 e v.G.Y.H.Y.K.o 1 9 : : Z R.D.Y.Y.F.D.d w 8 9 : B R.D.Y.Y.Y.K.x 1 9 8 : N !.F./.yXuXH % ! t.",
"=X2.{ % G MXKX(.A.d 1 e v.J.K.D.s 8 1 m P.Y.F.Y.G.x , B M : w c.K.Y.F.!.D.d 1 r M 1 w |.K.Y.F.L.m.7 w M f , N !.F.T.wXuXL u Q 9.",
"f.1.' u U GXVXE.S.d w e c.G.U.K.v 2 1 m K.Y.Y.L.m.; , m k.1 1 S P.F.F.Y.D.d 1 r b 9 1 m L.Y.T.K.b , 8 '.i 1 N !.F.F.5XvXXX& | 7.",
"s.-.X.f OXGXkX!.D.d 1 w c.K.H.P.x 1 1 }.K.Y.Y.P.b 1 w |.M.7 1 r R.F.Y.Y.D.d 1 t B.s 1 r R.D.T.D.d , B N.5 1 N !.H.S.2XfX@X4 +.3.",
"t.*._ 9 #XHXhXZ.D.d 1 w c.H.M.b 8 : e B.G.Y.Y.D.d 1 r R.G.x 1 1 [.K.Y.T.D.d 1 t R.v 2 1 [.K.L.j.: , }.n.7 1 N !.H.Z.1XBX.X8 O.,.",
"t.*._ w &XKXhXG.D.d w 8 9 f 9 1 8 t [.P.Y.Y.L.z.; 1 S K.K.o 1 : S I.Y.F.D.d q 0 R.j.1 1 S L.K.z 2 w B.M.7 1 N T.H.Z.1XfX$X8 +.,.",
"e.*._ w &XKXhXZ.D.d w 9 1 1 1 9 0 b.P.Y.F.T.P.v 1 w c.J.K.n.i w t ^.H.Y.D.d 1 t ^.D.s 1 t ^.n.i 1 N ~.m.7 1 N !.T.C.1XfX$Xw O.,.",
"u.*._ w &XLXhXF.D.d 1 w ].z.x w 1 B R.K.F.H.S.a 1 0 |.x.x.x.a w 1 {.K.Y.D.d 2 t B.J.v 1 1 {.l.1 1 ].P.m.5 1 N !.T.C.1XfX.X8 @.,.",
"a.;.X.f OXGXkX!.D.d 1 w b.J.D.d w , m P.Y.K.j.: w : , 2 , 2 1 8 1 V I.Y.S.d 1 t B.P.j.; 1 C x 1 t B.K.m.7 < N !.H.Z.4XBX@X& +.3.",
"f.1.] i U GXNXE.D.d w e |.K.G.k.1 8 r R.H.G.v 1 9 9 6 6 6 6 6 w : 0 B.K.D.d 2 t ^.H.S.a w 8 8 1 C T.K.m.7 2 N !.H.S.5XvXXX& %.7.",
"=X2. .l G FXAX(.A.d w w c.K.F.D.s w 1 ].P.n.s 1 t B.M.R.M.U.M.a w 1 ].P.S.d 1 t ^.F.P.b 1 9 9 1 {.P.L.m.7 1 N !.F.T.rXxXL % Y 5.",
",X4.{ j A bXDX<XV.d w w c.G.Y.K.v 1 8 N I.j.w : V I.H.D.H.F.P.b 1 8 C !.D.d 1 t ^.G.H.z.: 9 8 t R.F.H.m.5 w N !.S.W.tXuXP % W y.",
"gX9.T $ e qXHX8XA.s > , c.K.Y.L.m.; , , v.z * > ].K.T.F.F.Y.K.z.1 > 2 v.G.s > e ^.G.T.D.d > * S I.Y.H.m.: * Z !.Z. XfXrXZ   ( d.",
"PXu.R _ : +XGXkXD.l.n ].R.K.Y.F.F.k.n n N.l.n ].R.H.F.Y.T.F.T.H.k.n n R.K.k.n '.U.H.Y.K.z.n n B.G.Y.H.F.k.n l.!.Z.4XfX$X8 o.,.;X",
"LXg.1.{ u I MXAX).J.P.P.H.!.H.H.Y.L.P.P.G.P.P.P.G.Y.T.!.F.H.F.F.G.P.P.F.Y.K.P.K.H.H.H.F.K.P.P.H.Y.F.F.F.K.P.K.F.T.eXuXXX& | 0.gX",
"PX;X5.$.D g tXHX3XZ.U.Y.F.F.Y.H.F.Y.Y.Y.Y.Y.Y.Y.F.F.Y.F.H.F.H.H.Y.Y.Y.Y.H.Y.Y.Y.F.H.H.H.Y.Y.Y.Y.H.T.H.F.F.Y.T.C._.dXrXG j E u.LX",
"PXDXw.^ ` w +XGXlXE.F.F.F.H.T.H.H.F.H.T.H.H.Y.Y.H.T.T.H.H.H.H.H.H.H.H.H.H.H.H.H.H.H.H.H.H.H.H.H.H.H.H.T.F.T.Y.F.5XsX$X< O.>.=XPX",
"PXLXg.1.{ % F bXDX6XV.T.F.Y.F.H.H.T.H.H.H.H.H.Y.H.H.F.H.H.H.H.H.T.H.F.T.H.F.T.H.H.H.H.H.H.H.H.H.H.H.H.F.F.T.F./.yXuXK u | 0.gXPX",
"PXPXpX6.Q +.q #XFXkXE.F.F.T.H.H.H.H.H.H.H.F.T.F.H.H.H.H.F.F.H.H.F.H.T.H.H.H.H.H.H.T.T.F.T.H.H.H.H.H.H.H.F.T.Z.4XsX0Xq @ / d.PXPX",
"PXPXLXp.:.' u G bXSX3XC.T.F.H.H.H.H.H.H.T.F.H.T.H.H.H.H.T.T.H.F.H.H.H.H.H.H.H.H.H.F.F.F.H.H.H.H.H.H.T.F.T.Z._.dXuXK - } 3.,XPXPX",
"PXPXPX,X6.%.@.= oXFXVX/.S.T.F.F.H.H.H.H.H.H.H.H.H.H.!.H.H.H.H.T.T.H.H.H.H.H.!.H.H.F.H.T.H.H.H.F.H.F.F.T.F.T.wXuX$Xe . / p.PXPXPX",
"PXPXPXPXs.<.] j h jXVXkXH.F.T.F.T.H.F.!.H.H.H.H.H.H.F.H.H.H.H.H.F.H.T.F.H.H.F.F.H.T.H.H.H.H.H.!.H.T.F.H.Z.4XfXrXG u  .7.aXJXPXPX",
"PXPXPXPXgX8.~ ..9 P nXAX8XZ.F.F.H.H.H.H.H.H.H.H.!.H.H.H.H.H.H.F.H.F.H.H.H.F.H.H.T.H.F.T.H.H.H.H.T.F.T.Z.<XdXuXXX= ) &.g.PXPXPXPX",
"PXPXPXJXPX*X4. .@.= OXMXSX8XC.T.H.F.H.H.H.H.H.H.F.H.F.H.H.H.H.T.H.T.H.H.H.!.H.H.F.H.H.H.H.F.T.F.H.T.Z.W.yXuX$X= . ! w.DXPXPXPXPX",
"PXPXPXPXPXKXi.<.] D = %XMXAX1XC.H.T.F.H.H.H.H.H.H.H.H.H.F.H.H.H.H.T.H.H.H.H.H.H.H.H.H.H.T.F.F.H.T.Z./.5XxX0Xh k  .7.,XPXPXPXPXPX",
"PXPXPXPXPXPXAXq.=.] l q %XFXAX7XZ.F.T.F.H.T.H.H.H.F.T.H.F.!.H.H.H.F.H.H.H.H.H.H.T.H.F.T.H.F.H.T.C. XsXsX0Xh y ' 1.h.PXJXPXPXPXPX",
"PXPXPXPXPXPXPX:X6.^ ] l q %XMXAX9XT.S.T.H.H.H.H.T.F.H.H.H.T.H.H.H.F.F.T.H.H.H.H.F.T.F.F.H.T.F.F.2XsXiX0XA y { -.d.PXPXPXPXPXPXPX",
"PXPXPXPXPXPXJXPX>X6.^ ] l q #XnXAXkX_.C.F.T.T.F.H.H.F.T.H.H.H.H.H.T.T.F.H.H.H.T.H.F.H.T.F.Z.W.5XdXxX0Xh 3 ' :.u.PXPXPXPXPXPXPXPX",
"PXPXPXPXPXPXPXPXPX*X6.^ ] k = U xXZXVX8XE.V.F.H.T.H.T.F.H.H.H.H.H.H.F.H.H.H.H.F.T.T.F.Z.F.<XyXfXzXoXq % ' >.t.DXPXPXPXPXPXPXPXPX",
"PXPXPXPXPXPXPXPXPXLX>X9.*.] $ < F %XnXAXlX3X/.Z.Z.F.H.T.T.T.H.H.H.H.H.T.T.T.H.F.S.Z.!. XwXdXxX0XP = X { -.p.JXPXPXPXPXPXPXPXPXPX",
"PXPXPXPXPXPXPXPXPXPXPX:Xq.;.#.) p = U eXmXSXBX5X`.E.F.Z.Z.Z.Z.F.F.F.F.S.Z.Z.Z.T.(.4XeXBXvXrXXXg 3 o.T 2.g.JXPXPXPXPXPXPXPXPXPXPX",
"PXPXPXPXPXPXPXPXPXPXJXPXAXi.4.E ] $ & e U qXnXZXVXjX5X2X`.).E.E.E.E.E./._.1X8XtXNXBXbXrXOXh < X { ( 5.;XPXPXPXPXPXPXPXPXPXPXPXPX",
"PXPXPXPXPXPXPXPXPXPXPXPXPXKX*X6.;.%.' # 4 e J #XtXvXZXCXAXBXkXkXkXjXjXBXBXCXZXvXrX%XI h ; j ..T 1.u.gXPXPXPXPXPXPXPXPXPXPXPXPXPX",
"PXPXPXPXPXPXPXPXPXPXPXPXPXJXPXBXi.5.=.%.X.$ % : h G OX#X%XtXxXbXxXxXxXeXqX#XXXJ h ; u . ..T -.q.;XPXPXPXPXPXPXPXPXPXPXPXPXPXPXPX",
"PXPXPXPXPXPXPXPXPXPXPXPXPXPXPXPXKXpXi.6.;.W { _ @ k 3 - e g F A F A A h e ; 4 k . ) #./ 1.r.-XJXPXPXPXPXPXPXPXPXPXPXPXPXPXPXPXPX",
"PXPXPXPXPXPXPXPXPXPXPXPXPXPXPXPXPXPXLXpXa.q.2.&.E %.' ..) O X         O o...} T / -.4.p.-XJXPXPXPXPXPXPXPXPXPXPXPXPXPXPXPXPXPXPX",
"PXPXPXPXPXPXPXPXPXPXPXPXPXPXPXPXPXPXPXPXPXKX>Xf.e.5.2.;.*.*.! W W W ! *.*.;.2.q.p.-XSXJXPXPXPXPXPXPXPXPXPXPXPXPXPXPXPXPXPXPXPXPX",
"PXPXPXPXPXPXPXPXPXPXPXPXPXPXPXPXPXPXPXPXJXPXPXLXLXgX;X*Xa.i.r.e.e.t.u.a.h.;X,XHXPXPXPXPXPXPXPXPXPXPXPXPXPXPXPXPXPXPXPXPXPXPXPXPX"
};
