/* XPM */
static char *_3a79d2a0e474a98b7fffac0a684a241[] = {
/* columns rows colors chars-per-pixel */
"16 16 153 2 ",
"   c #D62139",
".  c #AF2A58",
"X  c #B72958",
"o  c #B62A5A",
"O  c #BC295A",
"+  c #9D2466",
"@  c #9D2F69",
"#  c #9D306E",
"$  c #8F2A75",
"%  c #9B3174",
"&  c #953278",
"*  c #94327B",
"=  c #97327D",
"-  c #91357F",
";  c #A52362",
":  c #AB2460",
">  c #A62D66",
",  c #AB2A62",
"<  c #AA2E60",
"1  c #A52E6B",
"2  c #A12F6E",
"3  c #A52E6D",
"4  c #B02B61",
"5  c #B52A60",
"6  c #A83872",
"7  c #A13A7A",
"8  c #C1274E",
"9  c #C4264D",
"0  c #CA2549",
"q  c #C1294C",
"w  c #AA9E3C",
"e  c #B3AA3E",
"r  c #AE9E43",
"t  c #B48B57",
"y  c #B68D58",
"u  c #BD9356",
"i  c #B99851",
"p  c #BE9A52",
"a  c #BA9C52",
"s  c #BFA547",
"d  c #B7A847",
"f  c #B7A948",
"g  c #B3B745",
"h  c #B4B744",
"j  c #B6B44D",
"k  c #B8B44A",
"l  c #BCB24C",
"z  c #BBB44F",
"x  c #BCB953",
"c  c #BE8E79",
"v  c #BD8B7E",
"b  c #C0A446",
"n  c #C6BF5D",
"m  c #C08F7F",
"M  c #C2997C",
"N  c #B9CE5F",
"B  c #C5C05D",
"V  c #C6C96B",
"C  c #C5C96C",
"Z  c #C9CE6E",
"A  c #C8CE6F",
"S  c #C6D86E",
"D  c #C6D96F",
"F  c #C5D473",
"G  c #C9D076",
"H  c #6C3B9A",
"J  c #4639B5",
"K  c #643DA3",
"L  c #6E3CA2",
"P  c #643EA8",
"I  c #5440B6",
"U  c #5343BA",
"Y  c #6142AD",
"T  c #2E3BC7",
"R  c #2D3BC8",
"E  c #343DC6",
"W  c #383FC7",
"Q  c #3840C6",
"!  c #3241CD",
"~  c #3144CE",
"^  c #3D44C8",
"/  c #3F47CA",
"(  c #3F48CB",
")  c #3C48CD",
"_  c #3F48CC",
"`  c #2A4DDF",
"'  c #3545D1",
"]  c #3049D3",
"[  c #3848D3",
"{  c #3D4BD1",
"}  c #314BDB",
"|  c #294DE1",
" . c #4A45C0",
".. c #4045C8",
"X. c #4246C8",
"o. c #4047CB",
"O. c #4149CB",
"+. c #4249CB",
"@. c #444BCB",
"#. c #4551D4",
"$. c #4152D8",
"%. c #4857DB",
"&. c #4958DC",
"*. c #7A7BD9",
"=. c #7D7BD8",
"-. c #5A65E0",
";. c #5B66E1",
":. c #6C74E3",
">. c #6D77E6",
",. c #7073E0",
"<. c #737BE7",
"1. c #8F3482",
"2. c #BF9783",
"3. c #B89392",
"4. c #BA9694",
"5. c #B492A2",
"6. c #B693A3",
"7. c #AB8EB7",
"8. c #A088BC",
"9. c #A38CBD",
"0. c #AE92B9",
"q. c #B79DB7",
"w. c #B89CB5",
"e. c #C19984",
"r. c #CBDE83",
"t. c #C9E280",
"y. c #E3F3B2",
"u. c #E3F3B3",
"i. c #9181CB",
"p. c #9583CA",
"a. c #9383CC",
"s. c #9886CB",
"d. c #9188CF",
"f. c #8C8AD4",
"g. c #8D84DC",
"h. c #8F86DE",
"j. c #A998CB",
"k. c #A998CC",
"l. c #B197D5",
"z. c #B398D7",
"x. c #BB9CD3",
"c. c #BC9ED6",
"v. c #8683E0",
"b. c #A598E8",
"n. c #A89AE9",
"m. c #EAF7C8",
"M. c #ECF7C8",
"N. c #F2FFCE",
"B. c #F0FBD2",
"V. c #FCFFF3",
"C. c #FCFFF5",
"Z. c #FDFDFC",
"A. c gray100",
/* pixels */
"A.A.A.A.B.F j f f z A M.A.A.A.A.",
"A.A.Z.r.r e.0.s.a.9.4.a G C.Z.A.",
"A.A.N t z.;.[ ! ! ' &.h.v z V.Z.",
"A.t.t n.~ W O.O.O.O./ T <.2.C A.",
"N.w c.] ..O.) / O.) ..@.T v.u y.",
"S M ,.J { ) / O.) X.) ) / #.5.n ",
"h q.6 , 3 } @ O | . 5 | < : f.b ",
"e j., % 4  .> o U > 0 P 8 ; *.p ",
"e j., q = H 8 q 1.% &   - + =.p ",
"g w.7 I # 1 L K 2 * P o Y $ d.b ",
"S M :.W O.O.[ [ ..( ) [ / $.5.B ",
"N.w x.~ ..O./ / O.) ( @.T v.u y.",
"A.t.t b.! W ( O.O./ / T >.v C A.",
"A.A.N t l.-.[ ! ! ' %.g.c x V.A.",
"Z.A.Z.r.r 2.7.p.i.8.3.i G V.A.Z.",
"A.A.Z.A.B.F k d d l Z m.A.Z.A.A."
};
