/* XPM */
static char *f0c2d5a4c06d4e43fa337377e2092b75[] = {
/* columns rows colors chars-per-pixel */
"32 32 251 2 ",
"   c #7B6B1A",
".  c #727D16",
"X  c #765A34",
"o  c #795D30",
"O  c #6E7629",
"+  c #7D7320",
"@  c #7B6533",
"#  c #782776",
"$  c #72277A",
"%  c #74287B",
"&  c #FF150A",
"*  c #EC1B1E",
"=  c #FF1714",
"-  c #F61815",
";  c #FD1813",
":  c #F5191C",
">  c #FD1B1B",
",  c #DE1F2C",
"<  c #DE1F32",
"1  c #EB1C25",
"2  c #E91D28",
"3  c #F71A22",
"4  c #E41F34",
"5  c #E91E32",
"6  c #D4202E",
"7  c #CF2235",
"8  c #DB2033",
"9  c #D9213A",
"0  c #876F1E",
"q  c #8B701D",
"w  c #8E4C2C",
"e  c #954E23",
"r  c #96482E",
"t  c #845226",
"y  c #895531",
"u  c #845837",
"i  c #9E5736",
"p  c #985F3B",
"a  c #83662B",
"s  c #90622F",
"d  c #8E6230",
"f  c #966039",
"g  c #BF2648",
"h  c #B9294E",
"j  c #AB2C5D",
"k  c #B52955",
"l  c #BC2A5F",
"z  c #9A2F66",
"x  c #8F316F",
"c  c #893376",
"v  c #853479",
"b  c #A82D68",
"n  c #B72B64",
"m  c #B02D6E",
"M  c #AA2F73",
"N  c #A2317C",
"B  c #C6254B",
"V  c #D02345",
"C  c #DD2141",
"Z  c #C42751",
"A  c #C42858",
"S  c #B2414A",
"D  c #B8494C",
"F  c #AE5447",
"G  c #AB5F49",
"H  c #B05347",
"J  c #B34E53",
"K  c #B75C54",
"L  c #A16241",
"P  c #A76048",
"I  c #D2475A",
"U  c #CB5461",
"Y  c #C95E64",
"T  c #D35361",
"R  c #C66A6A",
"E  c #DE6572",
"W  c #CF7375",
"Q  c #E46F7A",
"!  c #74831E",
"~  c #659A1A",
"^  c #7C9A1C",
"/  c #6ABC1D",
"(  c #588E27",
")  c #589A25",
"_  c #6C9823",
"`  c #5FA721",
"'  c #7AB522",
"]  c #6DC41E",
"[  c #8D9D1F",
"{  c #82AB18",
"}  c #95AF1B",
"|  c #8FB224",
" . c #90B224",
".. c #8AC426",
"X. c #81C925",
"o. c #97D729",
"O. c #9AD52E",
"+. c #9AD92E",
"@. c #9ED437",
"#. c #A2C927",
"$. c #A7DE3B",
"%. c #ADEA2D",
"&. c #B1EA2F",
"*. c #A6E531",
"=. c #AAE53A",
"-. c #C1EF3F",
";. c #CCF13D",
":. c #AEE540",
">. c #B5EB45",
",. c #BCEF41",
"<. c #BBE94E",
"1. c #BDEE53",
"2. c #CDF140",
"3. c #C3F25A",
"4. c #D8F956",
"5. c #E4F559",
"6. c #C4F460",
"7. c #D5FD68",
"8. c #DEFC7A",
"9. c #E4FC7F",
"0. c #F6FF7E",
"q. c #793785",
"w. c #7D3788",
"e. c #73388C",
"r. c #6D3A93",
"t. c #623D9D",
"y. c #733499",
"u. c #713B9C",
"i. c #753BA4",
"p. c #703DAD",
"a. c #653FB1",
"s. c #5340A9",
"d. c #5940AA",
"f. c #4345BE",
"g. c #4C44B9",
"h. c #5443BF",
"j. c #5B42BB",
"k. c #6240B7",
"l. c #2F3CCB",
"z. c #3137C6",
"x. c #343AC7",
"c. c #353DC9",
"v. c #3A47C6",
"b. c #3741CA",
"n. c #3E46CB",
"m. c #3649CE",
"M. c #3E48CC",
"N. c #2C42D4",
"B. c #3047D6",
"V. c #354AD5",
"C. c #3A49D3",
"Z. c #314BD8",
"A. c #3D57DA",
"S. c #1850E8",
"D. c #264EE2",
"F. c #4346C3",
"G. c #4D45C7",
"H. c #4147CA",
"J. c #424ACC",
"K. c #4A4ECB",
"L. c #4855CF",
"P. c #4547D0",
"I. c #4847D1",
"U. c #4A57D0",
"Y. c #4D5BD1",
"T. c #515CD0",
"R. c #5A61CE",
"E. c #5A61D1",
"W. c #5968D6",
"Q. c #5E71D7",
"!. c #5E77DE",
"~. c #626DD4",
"^. c #6173D8",
"/. c #87368F",
"(. c #933187",
"). c #983386",
"_. c #93358B",
"`. c #8A3792",
"'. c #843999",
"]. c #DF7B82",
"[. c #E67784",
"{. c #7287DE",
"}. c #7E92E0",
"|. c #7395EE",
" X c #EC8492",
".X c #F7959B",
"XX c #E79EA6",
"oX c #F69DA5",
"OX c #FF9FA4",
"+X c #FFA1A5",
"@X c #F3A4AB",
"#X c #F5ABB2",
"$X c #FFAFB1",
"%X c #FFB2B3",
"&X c #F1B7BA",
"*X c #F8B7BD",
"=X c #E5FF85",
"-X c #E8FD83",
";X c #F8FB8A",
":X c #FFFA93",
">X c #FCFA9B",
",X c #FCFFB4",
"<X c #FFFEBC",
"1X c #8A9CDE",
"2X c #96A9DF",
"3X c #8194E1",
"4X c #94A5E4",
"5X c #97ACE2",
"6X c #9BADE7",
"7X c #9DB3E6",
"8X c #9EB1E9",
"9X c #85A9F5",
"0X c #A7BBEC",
"qX c #FCBBC1",
"wX c #ACC3EE",
"eX c #B4C1E2",
"rX c #B3C8E9",
"tX c #BED7EA",
"yX c #A0C5FC",
"uX c #BDD4F3",
"iX c #C3C9DF",
"pX c #D8D2DB",
"aX c #E9C9CB",
"sX c #FFC5C4",
"dX c #F3C3CB",
"fX c #E7CBD8",
"gX c #F5CBD4",
"hX c #E7D3DD",
"jX c #EADCDE",
"kX c #FFD7D2",
"lX c #FFFFC2",
"zX c #FFFFCE",
"xX c #EDE1DF",
"cX c #FEE0D9",
"vX c #FFFFD3",
"bX c #FFFEDF",
"nX c #CADDE8",
"mX c #D2DBE4",
"MX c #DDDEEB",
"NX c #E4D1E0",
"BX c #CDE2EC",
"VX c #DEE4E3",
"CX c #CAE3FD",
"ZX c #DAE8F2",
"AX c #ECEFEE",
"SX c #F9E8E3",
"DX c #FFFCE4",
"FX c #FFFCEB",
"GX c #EFF1F0",
"HX c #FFFEF3",
"JX c #FEFEFE",
/* pixels */
"JXJXJXJXJXJXJXJXJXJXJX<X-X3.:.O.O.$.1.8.<XFXJXJXJXJXJXJXJXJXJXJX",
"JXJXJXJXJXJXJXJXFX;X:.' ! a f P G L s + ^ @.9.bXJXJXJXJXJXJXJXJX",
"JXJXJXJXJXJXJX>X*.~ y Y .XqXgXNXNXhXdX#X].H   ..=XHXJXJXJXJXJXJX",
"JXJXJXJXJXFX5./ X E sXMX0X{.W.U.U.T.^.3XrXjXoXJ . >.vXJXJXJXJXJX",
"JXJXJXJXbX2.) S %XZX}.K.x.c.b.n.n.n.c.c.c.E.7XxX[.t +.lXJXJXJXJX",
"JXJXJXFX;.( I cXwXK.x.n.J.J.H.n.n.H.M.J.J.b.x.~.BXoXr +.vXJXJXJX",
"JXJXJX5.) I SX6Xc.n.J.H.n.M.M.M.P.n.M.M.n.J.J.c.K.tX@Xw =.DXJXJX",
"JXJX:X] S kX8Xz.M.J.n.M.M.M.M.J.n.n.M.J.M.M.n.J.b.K.nX X  7.JXJX",
"JXDX%.X +XuXc.J.J.n.n.J.J.M.M.M.H.M.M.M.M.M.M.n.M.b.E.VXU { <XJX",
"JX;X` T GXE.c.J.n.J.J.n.M.n.n.H.M.M.n.n.n.M.n.M.M.J.x.1X&Xe 6.JX",
"JX,.o $X0Xx.J.n.H.H.n.M.M.n.n.H.M.M.M.M.H.H.M.M.M.H.n.K.mXY  .vX",
",XX.J SXQ.b.J.C.V.C.M.n.M.M.n.n.n.n.M.n.M.C.n.n.C.m.J.x.5XXXq =X",
"0._ Q CXe.8 9 8 l h.m.n.F.g 9 k.m.C.r.8 V j.m.M.g.B 8 y.!.aXi <.",
"4.O OXyX# = `.w.- l C.C.r.: > M V.V.v : : M Z.C.c : : (.A.pXK #.",
"-.@ %X9X$ > I.S.7 C C.Z.k A j 5 K.Z.v 5 k 4 H.m.7 n , (.B.iXR } ",
"&.u sX|.% > b j 2 '.V.f.* y.s.; i.D.v 2 u.: p.s.: u.2 ).N.eXW [ ",
"&.u sX|.% > h 1 B M.Z.q.: i.d.1 n D.v 3 G.6 m z C F.* _.N.eXW [ ",
"2.@ %X9X$ > I.t.; /.D.k : 8 < 1 4 C.w.3 J.x 2 1 ).v.1 _.B.iXR } ",
"4.O .XyX# ; a.B.6 C g.- N n.H.q.& i.q.= G.s.- > j.f.- (.A.pXK #.",
"-X_ Q CXr.B h.Z.w.Z r.B j.C.C.F.B `.t.Z G.m.j M C.F.g y.!.aXi <.",
"<XX.J SXQ.N.M.H.M.V.M.V.M.n.H.M.V.m.M.V.M.M.C.V.H.M.C.l.2XXXq =X",
"HX,.o $X0Xx.H.J.H.H.M.n.H.M.M.n.H.n.H.H.n.M.n.H.M.n.n.J.mXY | zX",
"JX;X` T AXR.b.J.n.n.H.n.n.M.J.M.H.H.n.n.M.M.n.H.n.J.z.1X&Xe 3.JX",
"JXDX%.X OXuXc.M.J.n.J.M.M.M.M.n.n.n.H.M.J.M.M.n.M.n.R.VXU { <XJX",
"HXJX:X] S kX6Xz.J.H.n.n.J.M.M.M.n.M.M.n.H.n.v.J.n.b.tX X  7.JXJX",
"JXJXJX5.) I SX4Xc.b.J.J.n.M.J.n.J.J.M.M.M.n.K.c.K.rX@Xw *.FXJXJX",
"JXJXJXFX;.( I cX0XK.z.n.J.J.M.n.M.M.H.J.J.n.x.~.nXoXr o.vXJXJXJX",
"JXJXJXJXbX;.) S $XZX}.K.x.c.b.n.n.n.b.x.c.Y.5XjX[.t +.lXJXHXJXJX",
"JXJXJXJXJXFX5./ X E qXMX8X{.W.L.L.U.~.}.0XhXoXD . >.vXJXJXJXJXJX",
"JXJXJXJXJXJXJX>X*.~ y Y .X*XaXNXpXfXdX@X].F   ..=XHXJXJXJXJXJXJX",
"JXJXJXJXJXJXJXJXFX;X:.' . a p G P L d 0 ^ @.8.bXJXJXJXJXJXJXJXJX",
"JXJXJXJXJXJXJXJXJXJXHXlX9.3.$.O.O.$.1.8.,XFXJXJXJXJXJXJXJXJXJXJX"
};
